# xmcd
#
# Track frame offsets:
#	150
#	17554
#	34485
#	55799
#	71844
#	89057
#	105719
#	119128
#	135999
#	150548
#	170201
#	186527
#	202643
#	220278
#	240881
#
# Disc length: 3450 seconds
#
# Revision: 1
# Processed by: cddbd v1.5.2PL0 Copyright (c) Steve Scherf et al.
# Submitted via: audiograbber 1.83.01
#
DISCID=d90d780f
DTITLE=Harvey Levy - Cowboys and Angels
DYEAR=2005
DGENRE=Country
TTITLE0=Jack And Lucy
TTITLE1=Big Country's Cowboy Soul
TTITLE2=Tofino
TTITLE3=When You're Not There
TTITLE4=You Were A Believer In Me
TTITLE5=Katy Brown
TTITLE6=9-1-1
TTITLE7=Too Much
TTITLE8=If You Wanna Make A Movie
TTITLE9=Far Away Hills Are Green
TTITLE10=Cowboys And Angels
TTITLE11=Worst Of Both Worlds
TTITLE12=Old Times
TTITLE13=How Can I Miss You If You Won't Go Away
TTITLE14=It's Snowing In Chicago
EXTD=
EXTT0=
EXTT1=
EXTT2=
EXTT3=
EXTT4=
EXTT5=
EXTT6=
EXTT7=
EXTT8=
EXTT9=
EXTT10=
EXTT11=
EXTT12=
EXTT13=
EXTT14=
PLAYORDER=
